<svg width="24" height="24" viewBox="0 0 24 24" fill="red" xmlns="http://www.w3.org/2000/svg">
    <path d="M17.25 1.85071C16.2243 1.86063 15.2152 2.11065 14.3035 2.58073C13.3918 3.05081 12.6029 3.72788 12 4.55771C11.397 3.72788 10.6081 3.05081 9.69644 2.58073C8.78476 2.11065 7.77565 1.86063 6.74996 1.85071C4.89173 1.92491 3.13848 2.73189 1.87358 4.09517C0.608672 5.45846 -0.0649657 7.26713 -4.03235e-05 9.12571C-4.03235e-05 13.6777 4.67396 18.5507 8.59996 21.8377C9.55329 22.6393 10.7589 23.0788 12.0045 23.0788C13.25 23.0788 14.4556 22.6393 15.409 21.8377C19.331 18.5507 24.009 13.6777 24.009 9.12571C24.0738 7.26563 23.399 5.45564 22.1322 4.0921C20.8653 2.72856 19.1098 1.9226 17.25 1.85071Z" />
</svg>
