<svg width="16" height="15" viewBox="0 0 16 15" fill="none" xmlns="http://www.w3.org/2000/svg">
<path d="M14.9627 5.70685L10.4996 5.05822L8.50449 1.01349C8.45 0.902747 8.36035 0.813099 8.24961 0.758606C7.97188 0.621497 7.63438 0.735755 7.49551 1.01349L5.50039 5.05822L1.03731 5.70685C0.91426 5.72443 0.80176 5.78243 0.715627 5.87032C0.611498 5.97735 0.554117 6.12134 0.556095 6.27065C0.558073 6.41996 0.619246 6.56238 0.726174 6.66661L3.95528 9.81486L3.19239 14.2604C3.1745 14.3638 3.18594 14.4701 3.22542 14.5674C3.2649 14.6646 3.33083 14.7488 3.41575 14.8105C3.50066 14.8722 3.60116 14.9088 3.70584 14.9163C3.81052 14.9238 3.9152 14.9017 4.00801 14.8527L8 12.7539L11.992 14.8527C12.101 14.9108 12.2275 14.9301 12.3488 14.909C12.6547 14.8563 12.8604 14.5662 12.8076 14.2604L12.0447 9.81486L15.2738 6.66661C15.3617 6.58048 15.4197 6.46798 15.4373 6.34493C15.4848 6.03732 15.2703 5.75255 14.9627 5.70685Z" fill="#FFD33C"/>
</svg>
